<?xml version="1.0" encoding="UTF-8" standalone="no"?>
<!-- Created with Inkscape (http://www.inkscape.org/) -->

<svg
   xmlns:dc="http://purl.org/dc/elements/1.1/"
   xmlns:cc="http://creativecommons.org/ns#"
   xmlns:rdf="http://www.w3.org/1999/02/22-rdf-syntax-ns#"
   xmlns:svg="http://www.w3.org/2000/svg"
   xmlns="http://www.w3.org/2000/svg"
   xmlns:sodipodi="http://sodipodi.sourceforge.net/DTD/sodipodi-0.dtd"
   xmlns:inkscape="http://www.inkscape.org/namespaces/inkscape"
   version="1.1"
   id="svg248"
   width="128"
   height="128"
   viewBox="0 0 128 128"
   sodipodi:docname="nextIcon.svg"
   inkscape:version="0.92.2 5c3e80d, 2017-08-06">
  <metadata
     id="metadata254">
    <rdf:RDF>
      <cc:Work
         rdf:about="">
        <dc:format>image/svg+xml</dc:format>
        <dc:type
           rdf:resource="http://purl.org/dc/dcmitype/StillImage" />
        <dc:title />
      </cc:Work>
    </rdf:RDF>
  </metadata>
  <defs
     id="defs252" />
  <sodipodi:namedview
     pagecolor="#ffffff"
     bordercolor="#ffffff"
     borderopacity="1"
     objecttolerance="10"
     gridtolerance="10"
     guidetolerance="10"
     inkscape:pageopacity="0"
     inkscape:pageshadow="2"
     inkscape:window-width="1918"
     inkscape:window-height="1028"
     id="namedview250"
     showgrid="false"
     inkscape:pagecheckerboard="true"
     inkscape:zoom="4.22"
     inkscape:cx="64"
     inkscape:cy="62.218715"
     inkscape:window-x="0"
     inkscape:window-y="0"
     inkscape:window-maximized="1"
     inkscape:current-layer="svg248" />
  <g
     id="g317"
     transform="matrix(-1,0,0,1,128,0)">
    <path
       inkscape:connector-curvature="0"
       id="rect258"
       d="M 79.663109,21.121075 C 75.821942,21.098952 73.7588,24.700772 71.179829,26.961777 58.871522,39.270085 46.563214,51.578392 34.254906,63.8867 c 13.79813,13.76723 27.535999,27.597817 41.371853,41.32539 3.65571,3.29436 10.172596,0.54988 10.412151,-4.35243 0.488111,-3.982565 -3.19428,-6.24072 -5.527648,-8.813777 C 71.122923,82.660943 61.739168,73.27142 52.350609,63.8867 63.103549,53.106183 73.915711,42.38179 84.629073,31.563638 88.082505,27.599343 84.917129,20.96579 79.663109,21.121075 Z"
       style="opacity:1;fill:#ffffff;fill-opacity:1" />
    <rect
       y="-6.4392935e-15"
       x="0"
       height="128"
       width="128"
       id="rect313"
       style="opacity:1;fill:none;fill-opacity:1;stroke-width:1" />
  </g>
</svg>
